<?xml version="1.0" encoding="UTF-8"?>
<svg version="1.1" xmlns="http://www.w3.org/2000/svg" width="3238" height="3238">
<path d="M0 0 C1068.54 0 2137.08 0 3238 0 C3238 1068.54 3238 2137.08 3238 3238 C2169.46 3238 1100.92 3238 0 3238 C0 2169.46 0 1100.92 0 0 Z " fill="#242338" transform="translate(0,0)"/>
<path d="M0 0 C25.72523471 -0.09423419 51.45044285 -0.16436069 77.17581654 -0.20724869 C89.12565254 -0.2277084 101.07538016 -0.25550334 113.02514648 -0.30175781 C123.46360014 -0.34214246 133.90197519 -0.36755257 144.34050483 -0.37635398 C149.84671427 -0.38148328 155.35269919 -0.39317265 160.85883522 -0.42292023 C189.47892509 -0.57133229 217.56197335 0.74059472 246 4 C246.86667746 4.09847386 247.73335492 4.19694773 248.62629533 4.29840565 C306.39570369 10.87285621 363.81106336 22.81497602 417 47 C418.0209375 47.46374023 419.041875 47.92748047 420.09375 48.40527344 C439.18738226 57.16237132 457.80088591 66.88625855 475 79 C476.07894531 79.74378906 477.15789062 80.48757813 478.26953125 81.25390625 C502.14784694 97.85843634 525.16834556 117.95652009 543 141 C543.85196592 142.05256639 544.70625585 143.10325467 545.5625 144.15234375 C572.94612798 177.93203995 593.2368233 218.86865464 604 261 C604.2676416 262.01932617 604.5352832 263.03865234 604.81103516 264.08886719 C614.41868516 300.91731955 618.53958568 338.30469907 618.33701229 376.31235504 C618.32152812 379.85161806 618.3238555 383.39088489 618.32354736 386.93017578 C618.32017234 393.76577821 618.30051023 400.60123348 618.27460313 407.43678379 C618.25409244 412.96314257 618.24081853 418.4894795 618.23217773 424.01586914 C618.23092958 424.80694738 618.22968143 425.59802562 618.22839546 426.41307592 C618.22652135 427.60299257 618.22652135 427.60299257 618.22460938 428.81694794 C618.12886487 489.54643297 617.64964233 550.27410838 617 611 C558.89254309 611.10481803 500.78380968 611.13821516 442.67733765 610.73654175 C437.80790377 610.70309907 432.93850008 610.67558593 428.06900024 610.65383911 C385.28851842 610.45485873 342.5154376 609.03916875 300 604 C298.64552536 603.84213456 297.29103242 603.684426 295.93652344 603.52685547 C280.8877673 601.76697137 265.8698319 599.94652644 251 597 C249.11462661 596.63779549 247.22920615 596.27583596 245.34375 595.9140625 C181.12608424 583.460127 117.2299072 563.45521385 70 516 C69.15179687 515.15179687 68.30359375 514.30359375 67.4296875 513.4296875 C56.22343587 501.58078345 47.49839375 487.40839678 40 473 C39.67612305 472.39414063 39.35224609 471.78828125 39.01855469 471.1640625 C28.12616687 450.59323079 20.78793823 427.01075721 16.58886719 404.19140625 C16.02912885 401.15786581 15.44554237 398.12957487 14.85484314 395.10192871 C14.16657772 391.56938507 13.48845891 388.03491667 12.8125 384.5 C12.62184464 383.50480347 12.62184464 383.50480347 12.42733765 382.48950195 C10.83921699 374.14639155 9.50203337 365.81203852 8.4362793 357.3894043 C7.6083426 350.95725813 6.62303916 344.54353523 5.5 338.15625 C4.30204596 331.34288638 3.48043426 324.53596207 2.75219727 317.66040039 C1.98400999 310.54126074 0.92400777 303.48560342 -0.52111626 296.47023678 C-1.14798055 291.92765718 -1.13780412 287.47818457 -1.12698364 282.89808655 C-1.12854363 281.88325477 -1.13010362 280.86842298 -1.13171089 279.82283872 C-1.13569886 276.42232367 -1.1325394 273.02185328 -1.12939453 269.62133789 C-1.13074983 267.18129958 -1.13253048 264.74126147 -1.13470459 262.30122375 C-1.13879656 256.3532974 -1.13818841 250.40538853 -1.13529195 244.45746285 C-1.13302728 239.60334391 -1.13273003 234.74922849 -1.13381577 229.89510918 C-1.133969 229.20224056 -1.13412223 228.50937193 -1.13428011 227.79550729 C-1.13459989 226.38722202 -1.1349241 224.97893674 -1.1352527 223.57065146 C-1.13810656 210.34996646 -1.13482556 197.12928837 -1.12945233 183.9086045 C-1.12501696 172.65008502 -1.12573313 161.39157591 -1.13037109 150.13305664 C-1.13577534 137.008636 -1.13779778 123.8842215 -1.13475883 110.7597999 C-1.13444037 109.34680363 -1.134126 107.93380735 -1.13381577 106.52081108 C-1.13366149 105.82598477 -1.13350721 105.13115846 -1.13334826 104.41527681 C-1.132498 99.60346467 -1.13393193 94.79165657 -1.13629532 89.97984505 C-1.14980035 59.97128358 -1.01848609 29.9933791 0 0 Z " fill="#242338" transform="translate(872,875)"/>
<path d="M0 0 C3.348401 0.0036316 6.6967976 0.00520455 10.04520035 0.0062561 C67.56705383 0.02849288 125.08596506 0.56485101 182.60461807 1.12857056 C182.74205649 56.95225314 182.64182911 112.77657546 182.36729336 168.59971619 C182.32396622 177.434947 182.28492455 186.27013917 182.25845718 195.10543823 C182.235468 202.74511295 182.20195167 210.38466037 182.15601683 218.0242328 C182.13258482 221.96515524 182.11343727 225.9059587 182.106987 229.84694862 C182.05983904 255.29788812 180.45044474 280.29806405 175.79211807 305.37857056 C175.60128143 306.42746964 175.60128143 306.42746964 175.40658951 307.49755859 C168.81390897 343.70572873 158.25893246 379.65200551 140.60461807 412.12857056 C139.84023873 413.57124899 139.07591849 415.01395875 138.31164932 416.45669556 C127.31833379 436.94745679 113.83738522 455.5982518 98.60461807 473.12857056 C97.88789932 473.95872681 97.17118057 474.78888306 96.43274307 475.64419556 C87.15942583 486.17254822 77.27688168 496.37962819 66.22961807 505.05044556 C64.4843508 506.43211548 62.77465271 507.85997753 61.10461807 509.33169556 C41.54842697 526.50021217 17.96503291 539.95369453 -5.4403038 551.18569946 C-7.3862819 552.12418191 -9.3206468 553.08387551 -11.25475693 554.04653931 C-23.95031027 560.28330806 -37.13882169 565.22688438 -50.39538193 570.12857056 C-51.36250107 570.48983032 -52.32962021 570.85109009 -53.32604599 571.22329712 C-75.40338924 579.42036868 -98.10647807 585.20066022 -121.14538193 589.94107056 C-122.17328339 590.15281418 -122.17328339 590.15281418 -123.22195053 590.36883545 C-139.43172781 593.6830568 -155.72548582 596.31534645 -172.14025497 598.3812561 C-174.53846896 598.68543737 -176.93457787 599.00345098 -179.3309288 599.32192993 C-210.48259224 603.3447721 -241.60006234 603.40987028 -272.95334888 603.33135843 C-278.89626638 603.31866769 -284.83918697 603.31766639 -290.78211594 603.31530762 C-301.98317318 603.3091458 -313.18419035 603.29280848 -324.38523012 603.27260864 C-337.15958183 603.25008243 -349.93393568 603.23921461 -362.70830238 603.22921777 C-388.93735092 603.20843613 -415.16636416 603.17336582 -441.39538193 603.12857056 C-441.44545786 550.27591194 -441.42685387 497.42700193 -440.99010849 444.57595825 C-440.95703615 440.51416671 -440.92721057 436.45235484 -440.89806747 432.39053345 C-440.79174162 417.61977337 -440.67005781 402.84937885 -440.51454735 388.07903099 C-440.4367176 380.61816762 -440.37236828 373.15747415 -440.32312852 365.69637889 C-440.28560838 360.17016322 -440.2335585 354.64418799 -440.17166442 349.11819249 C-440.13579398 345.87650661 -440.10772726 342.63510392 -440.09240532 339.3932476 C-440.01267636 323.55987791 -438.75950162 308.48783159 -435.88497734 292.91328239 C-435.07652724 288.3149947 -434.4569051 283.6923375 -433.83288193 279.06607056 C-432.81818566 271.77533898 -431.5607954 264.58745182 -430.14538193 257.36294556 C-429.19512657 252.25037379 -428.56236658 247.09674033 -427.89538193 241.94107056 C-426.98053488 234.92188278 -425.85874295 228.0921937 -424.13366318 221.21841431 C-423.30931415 217.76836097 -422.69441558 214.31003769 -422.08288193 210.81607056 C-411.69698183 153.44229115 -385.88281139 100.98995346 -337.56628036 66.62661743 C-304.86249594 44.05909368 -266.91341201 29.26495353 -228.39538193 20.12857056 C-227.7720195 19.97988525 -227.14865707 19.83119995 -226.50640488 19.67800903 C-201.79457609 13.81068166 -176.99426883 10.03656538 -151.78475571 7.03291321 C-146.91481593 6.45036202 -142.065178 5.79976425 -137.21569443 5.06216431 C-129.5819358 3.94942404 -121.92948932 3.31789867 -114.23913193 2.75088501 C-111.8760555 2.57398144 -109.51483671 2.38018397 -107.15319443 2.18521118 C-71.57397044 -0.57899792 -35.66012258 -0.04394744 0 0 Z " fill="#242338" transform="translate(1305.3953819274902,1757.8714294433594)"/>
<path d="M0 0 C0.16126361 36.63674389 0.28408976 73.27342412 0.35745731 109.91045165 C0.36620917 114.26484595 0.37526972 118.61923955 0.38452148 122.97363281 C0.38635766 123.84028265 0.38819383 124.7069325 0.39008565 125.59984446 C0.42030053 139.51582525 0.47535268 153.43159747 0.54006957 167.34745574 C0.60621961 181.69431189 0.64455442 196.04106111 0.65861946 210.38806343 C0.66724848 218.41802422 0.68765965 226.44755161 0.7401104 234.47735596 C0.95380314 268.18814939 0.3482957 300.99912568 -5.6703375 334.30767345 C-7.28782693 343.32453335 -8.41634582 352.39478932 -9.5462743 361.4832325 C-16.60917986 416.9006307 -31.2629048 474.0129887 -70 516 C-70.53463867 516.57991699 -71.06927734 517.15983398 -71.62011719 517.75732422 C-84.31498513 531.34825638 -99.02075847 542.52304645 -115 552 C-115.70366699 552.41958984 -116.40733398 552.83917969 -117.13232422 553.27148438 C-136.86579998 564.90188308 -157.8343604 573.14812796 -179.5 580.375 C-180.23992188 580.62216766 -180.97984375 580.86933533 -181.7421875 581.12399292 C-197.36912364 586.31523087 -213.09039349 590.84327869 -229.25 594.0625 C-230.50321045 594.31507568 -231.7564209 594.56765137 -233.04760742 594.82788086 C-235.55685135 595.33049871 -238.06684263 595.82940279 -240.57763672 596.32421875 C-243.50363986 596.90198852 -246.42574614 597.49576724 -249.34765625 598.09375 C-261.48603864 600.50452132 -273.72738428 602.08173865 -286 603.625 C-287.23962997 603.78175705 -287.23962997 603.78175705 -288.50430298 603.94168091 C-346.64091856 611.24024831 -404.87867595 611.51235841 -463.37054837 611.66146386 C-473.71243532 611.68843416 -484.05422804 611.73265459 -494.39604926 611.77772307 C-534.26379258 611.95008199 -574.13186082 612.06518367 -614 612 C-614.96982911 561.91723842 -615.21753046 511.8400506 -615.23882818 461.74868143 C-615.24356916 450.79658366 -615.26124632 439.84460804 -615.2898953 428.89254707 C-615.31170623 420.24020324 -615.32160805 411.58789356 -615.32293582 402.93552262 C-615.32396361 397.84368352 -615.32943033 392.75196307 -615.34775543 387.66015434 C-615.4494974 357.7366468 -614.83418026 327.86576699 -609.1875 298.375 C-608.92530572 296.95959688 -608.66334949 295.54414965 -608.40161133 294.12866211 C-599.68815804 247.70348606 -583.0413139 201.98768246 -556 163 C-555.57090332 162.37561035 -555.14180664 161.7512207 -554.69970703 161.10791016 C-549.17172718 153.09328128 -543.28895564 145.4361267 -537 138 C-536.0753579 136.88815632 -535.15088704 135.7761702 -534.2265625 134.6640625 C-524.96955211 123.61006686 -515.04098511 113.28909449 -504 104 C-503.09507813 103.2059375 -502.19015625 102.411875 -501.2578125 101.59375 C-453.29776577 59.74956843 -392.7849102 34.59366378 -331.52856445 19.86157227 C-328.3995101 19.09754868 -325.27983129 18.3023968 -322.1605072 17.49978638 C-313.51836738 15.29030705 -304.84207362 13.50561066 -296.0625 11.9375 C-295.34879242 11.80893616 -294.63508484 11.68037231 -293.89974976 11.5479126 C-281.86231486 9.38983928 -269.82601449 7.65409295 -257.66015625 6.3828125 C-254.11002684 6.01150761 -250.56142126 5.62801512 -247.01289368 5.24179077 C-242.77989394 4.7818503 -238.546258 4.32790059 -234.3125 3.875 C-233.504711 3.78837097 -232.696922 3.70174194 -231.86465454 3.61248779 C-229.51031767 3.36123931 -227.15562265 3.11365797 -224.80078125 2.8671875 C-224.1212439 2.79439575 -223.44170654 2.721604 -222.74157715 2.64660645 C-209.09425636 1.23264021 -195.54407423 0.8061341 -181.8359375 0.68359375 C-179.80864227 0.6628306 -177.78134943 0.64183251 -175.75405884 0.62062073 C-171.45536498 0.57667272 -167.15665542 0.53589626 -162.85791016 0.49731445 C-157.69648515 0.45073884 -152.53518478 0.39644432 -147.37386703 0.33934593 C-98.25148564 -0.19429193 -49.12446015 -0.04232388 0 0 Z " fill="#242338" transform="translate(2367,874)"/>
<path d="M0 0 C3.48882973 -0.0043332 6.97763482 -0.01140897 10.46645355 -0.02114868 C36.70669993 -0.09092021 62.76817894 0.58248806 88.92495346 2.87724304 C91.51825038 3.10225796 94.11231207 3.31461359 96.70693588 3.52372742 C122.86604366 5.65346531 148.6973252 9.39861943 174.51357651 14.10185242 C175.20582321 14.22775757 175.89806992 14.35366272 176.61129379 14.48338318 C233.9481197 25.00175946 293.17733925 45.69736178 335.51357651 87.10185242 C336.35791245 87.88431335 337.20224838 88.66677429 338.07217026 89.47294617 C372.03141113 121.69347391 387.38095998 169.55742363 396.51357651 214.10185242 C396.72723862 215.13680847 396.72723862 215.13680847 396.94521713 216.19267273 C397.88584044 220.81470104 398.72297276 225.45223162 399.51357651 230.10185242 C399.66681381 231.00210144 399.82005112 231.90235046 399.97793198 232.82987976 C402.11310147 245.50549571 404.00520263 258.18822482 405.47451401 270.95927429 C406.09358337 276.23241866 406.93064773 281.38130021 408.01845932 286.57719421 C408.89294 291.03626952 409.46960775 295.53736473 410.07607651 300.03935242 C410.3247593 301.8821557 410.57594954 303.72462283 410.82998276 305.56669617 C410.99155869 306.76733704 410.99155869 306.76733704 411.15639877 307.99223328 C411.48878908 310.28319613 411.48878908 310.28319613 412.51357651 313.10185242 C412.62982717 315.47472356 412.68471998 317.85071797 412.70975876 320.2263031 C412.71878029 320.95813033 412.72780182 321.68995757 412.73709673 322.44396138 C412.76625581 324.90769608 412.78845625 327.37144467 412.81069565 329.83525085 C412.8301457 331.60271646 412.85000781 333.37017757 412.8702507 335.13763428 C412.92434581 339.9762853 412.972235 344.81498008 413.01882863 349.65370846 C413.06928907 354.81298757 413.12452442 359.97221613 413.17896652 365.13145447 C413.27064606 373.8951545 413.35821074 382.65888889 413.44350815 391.4226532 C413.52909371 400.21079156 413.61904711 408.99886903 413.71401596 417.78691101 C414.3807882 479.56042205 414.64742009 541.32483625 414.51357651 603.10185242 C386.84205541 603.17236843 359.17054806 603.22504696 331.49895477 603.25728893 C318.64653876 603.2726666 305.79417902 603.29357883 292.94179916 603.32817078 C281.72150353 603.35835524 270.50124871 603.37749324 259.28091359 603.3841179 C253.35634883 603.38798173 247.43190066 603.39686463 241.50737381 603.41904259 C208.1736519 603.53894127 175.34367943 602.53080363 142.32607651 597.60185242 C140.89976938 597.39914685 139.47333507 597.19733431 138.04677963 596.99638367 C107.09414041 592.58119654 76.37578219 586.40802303 46.51357651 577.10185242 C45.49151108 576.78635437 44.46944565 576.47085632 43.41640854 576.14579773 C-19.11539046 556.65825178 -80.82686983 522.96829164 -123.48642349 472.10185242 C-123.92937759 471.58332703 -124.3723317 471.06480164 -124.82870865 470.53056335 C-149.71728003 441.31035271 -168.29362435 407.23114525 -181.34579849 371.24320984 C-182.12781574 369.08948211 -182.9255251 366.94140636 -183.73642349 364.79838562 C-187.06935678 355.83603118 -189.44466879 346.83201362 -191.61142349 337.53935242 C-191.94795229 336.1231677 -192.28519033 334.70715133 -192.62314224 333.29130554 C-193.28117468 330.52768948 -193.93253344 327.76264926 -194.5772438 324.99589539 C-195.15303653 322.52975843 -195.73495813 320.06503764 -196.32529068 317.6023407 C-199.03123852 306.20646377 -200.73792549 294.79685849 -202.04892349 283.16435242 C-202.17460709 282.0873407 -202.30029068 281.01032898 -202.42978287 279.90068054 C-203.79920828 267.92000065 -204.63117257 256.02977789 -204.69174576 243.96928406 C-204.70164252 242.71797762 -204.71153929 241.46667118 -204.72173595 240.17744637 C-204.747775 236.75672973 -204.76975194 233.33603522 -204.78973389 229.91528106 C-204.81208729 226.23984533 -204.83941913 222.56444566 -204.86594009 218.88903809 C-204.91633602 211.77379375 -204.96130354 204.65852494 -205.00407565 197.54323107 C-205.03863655 191.80374628 -205.07528712 186.06427806 -205.11310196 180.32481384 C-205.50501145 120.58336996 -205.61230639 60.84456108 -205.48642349 1.10185242 C-185.25893093 0.96819075 -165.03141957 0.83777089 -144.80388451 0.71070099 C-135.40101677 0.65156484 -125.99815661 0.59154248 -116.59531021 0.52909851 C-77.73059425 0.27163176 -38.86562157 0.04729771 0 0 Z " fill="#242338" transform="translate(1959.4864234924316,1757.8981475830078)"/>
<path d="M0 0 C75.74690452 -0.10608633 151.49462094 -0.13733742 227.24070174 0.27647394 C232.67962883 0.30554719 238.1185539 0.32746219 243.55752563 0.34616089 C287.54292429 0.50195355 331.32308944 1.23572327 374.91455078 7.6953125 C377.15801233 8.02308586 379.40291693 8.33899387 381.6484375 8.65234375 C404.96583253 11.90633289 428.02592254 15.83878758 451 21 C452.47436523 21.33016113 452.47436523 21.33016113 453.97851562 21.66699219 C468.54615073 24.98559138 482.7796741 29.4425654 497 34 C497.64958679 34.20729736 498.29917358 34.41459473 498.96844482 34.62817383 C517.68172846 40.60281206 536.05130525 46.96284259 554 55 C555.11713379 55.49757813 556.23426758 55.99515625 557.38525391 56.5078125 C645.66906976 96.05350742 717.89646941 159.63738092 787.03735352 294.33520508 C794.61527234 314.62859023 800.50514542 335.13355124 805.35205078 356.23486328 C805.91164965 358.62296306 806.50270387 360.99770779 807.12109375 363.37109375 C810.27165232 375.60911027 811.86357194 388.05923155 813.53417969 400.57177734 C813.96119982 403.71444855 814.41485474 406.85148541 814.8828125 409.98828125 C815.01937256 410.92389893 815.15593262 411.8595166 815.29663086 412.82348633 C815.54108963 414.49744105 815.79101065 416.17061761 816.04907227 417.8425293 C818.60771239 435.84921359 818.14904507 454.27312053 818.1328125 472.41015625 C818.13357322 474.39403954 818.13434276 476.37792286 818.13556135 478.36180592 C818.13996944 485.61683553 818.13692914 492.87184559 818.13056505 500.12687302 C818.12586519 505.54744252 818.12350427 510.96800898 818.12231445 516.38858032 C818.09666598 614.92636556 817.51132471 713.46380106 817 812 C599.07776328 812.1969605 599.07776328 812.1969605 532.08072662 811.71085739 C528.69866308 811.68799789 525.31661037 811.6701072 521.93450928 811.65383911 C446.41193444 811.27187992 370.73232516 805.9435443 297 789 C296.29317078 788.83802124 295.58634155 788.67604248 294.85809326 788.50915527 C255.62317892 779.48207034 217.75516904 766.46111645 181.94775391 747.99609375 C179.99877402 746.99937303 178.03784695 746.02998636 176.07421875 745.0625 C158.25014521 736.12781922 141.4041057 724.64299241 126 712 C125.48985352 711.58991699 124.97970703 711.17983398 124.45410156 710.75732422 C116.23530074 704.12869358 108.67540086 696.8761729 101.1875 689.4375 C99.88039063 688.14428833 99.88039063 688.14428833 98.546875 686.82495117 C92.61071036 680.85998664 87.20533674 674.60956125 82 668 C81.44997314 667.30398682 80.89994629 666.60797363 80.33325195 665.89086914 C51.47369989 628.93072301 32.6886301 585.45124948 22 540 C21.72994141 538.86062988 21.45988281 537.72125977 21.18164062 536.54736328 C16.94775587 518.41745061 13.90302025 500.1073011 10.95474243 481.73519897 C10.36480495 478.09847239 9.71582536 474.48709105 8.953125 470.8828125 C7.73940049 465.01298965 7.02396445 459.08078387 6.27148438 453.137146 C5.78468041 449.30498757 5.28145435 445.47495941 4.78125 441.64453125 C4.56895771 440.01628291 4.35671856 438.38802765 4.14453125 436.75976562 C4.03834473 435.94548096 3.9321582 435.13119629 3.82275391 434.29223633 C3.60689718 432.63379701 3.39173224 430.97526752 3.17724609 429.31665039 C2.10028616 413.69308824 2.10028616 413.69308824 -2 399 C-2.09449372 396.86587976 -2.12207711 394.72870937 -2.12046814 392.59249878 C-2.12130541 391.92679615 -2.12214269 391.26109352 -2.12300533 390.57521808 C-2.12452696 388.33380832 -2.11879526 386.09247627 -2.11303711 383.85107422 C-2.11245084 382.25034723 -2.11226518 380.64962006 -2.11245155 379.04889297 C-2.11151291 374.67829921 -2.10395559 370.30773903 -2.09498715 365.93715525 C-2.08807873 362.23342812 -2.08469872 358.52970073 -2.08117217 354.8259691 C-2.04318742 316.68790328 -1.84633104 278.55056742 -1.61291426 240.41327196 C-1.57279836 233.85219079 -1.53388535 227.29110329 -1.49563599 220.73001099 C-1.06638561 147.15285749 -0.5576465 73.57628612 0 0 Z M100 101 C98.9474605 132.24952522 98.83576242 163.48549125 98.83274293 194.75037956 C98.83224092 198.89037553 98.82993283 203.03036933 98.82724571 207.17036438 C98.81850651 220.91969546 98.81381781 234.6690189 98.81457619 248.41835278 C98.81461614 249.15105808 98.8146561 249.88376338 98.81469727 250.63867188 C98.81473815 251.37229881 98.81477903 252.10592575 98.81482115 252.8617838 C98.81522988 264.81872477 98.80558597 276.7756346 98.7915589 288.73256654 C98.77716513 301.10186158 98.77028977 313.47114142 98.77115268 325.84044504 C98.7714827 332.74908691 98.76881911 339.65769575 98.75797462 346.56632996 C98.74787203 353.04118914 98.74823496 359.51599658 98.75549126 365.99085999 C98.75653214 368.35505272 98.75420394 370.71924989 98.7481308 373.08343506 C98.71483523 386.94772173 99.06903438 400.21464477 102 413.8125 C103.30363509 419.94365877 103.83829846 426.16520249 104.5 432.390625 C105.48681789 441.6343332 106.75876015 450.80769368 108.44677734 459.94995117 C109.02795161 463.15410389 109.57456277 466.36266367 110.11328125 469.57421875 C112.72872996 485.12747853 115.53109902 500.61223347 119 516 C119.15259277 516.680625 119.30518555 517.36125 119.46240234 518.0625 C131.92030026 572.19486197 161.87650931 618.52404247 208.8203125 648.47265625 C212.48976866 650.75157646 216.23136758 652.89027814 220 655 C220.6801416 655.38720215 221.3602832 655.7744043 222.06103516 656.17333984 C259.94283652 677.59228783 302.58489261 688.73230811 345 697 C345.72558105 697.1438916 346.45116211 697.2877832 347.19873047 697.43603516 C360.80007214 700.1075508 374.57186829 701.75046181 388.31347656 703.51611328 C390.69745986 703.82903082 393.0798224 704.15467397 395.45996094 704.49560547 C402.80426907 705.53623525 410.13957714 706.32805187 417.52880859 706.96386719 C418.53219395 707.05022777 419.5355793 707.13658834 420.56937027 707.22556591 C457.56453283 710.35189659 494.51821719 711.50400385 531.6334877 711.66975784 C536.57498861 711.69400023 541.51640018 711.72851652 546.45784092 711.76267529 C603.30392643 712.15188996 660.15301621 712.10254431 717 712 C717.65821597 650.47267995 718.13148455 588.9439961 718.22839546 527.41307592 C718.22964361 526.62199769 718.23089176 525.83091945 718.23217773 525.01586914 C718.23341078 524.22725195 718.23464382 523.43863477 718.23591423 522.62612009 C718.24526599 517.11847257 718.26257311 511.61088633 718.28344727 506.10327148 C718.30901425 499.31439149 718.32314727 492.52559452 718.32373834 485.73666477 C718.32427602 482.26518351 718.32911603 478.79388474 718.3476181 475.32244873 C718.71958971 393.92045612 697.75213909 311.85292659 647 247 C646.22785156 246.01257813 645.45570313 245.02515625 644.66015625 244.0078125 C631.23126414 227.252052 615.94130319 211.19219045 599 198 C597.83757423 197.05095009 596.67756909 196.09893041 595.51953125 195.14453125 C587.02732718 188.1750826 578.29870987 181.84780142 569 176 C568.28312012 175.54689453 567.56624023 175.09378906 566.82763672 174.62695312 C539.62881492 157.55964855 510.89174167 144.00413227 480.45654297 133.82666016 C477.96617729 132.9886182 475.48483177 132.12727003 473.00390625 131.26171875 C427.31579272 115.45638556 379.03481728 107.78626648 331.0078125 103.3828125 C328.23014119 103.12622285 325.461123 102.82353576 322.69012451 102.50337219 C301.72023267 100.2619062 280.63333912 100.74175012 259.57493973 100.79721212 C253.94962302 100.80985938 248.32430334 100.81090086 242.69897461 100.81326294 C232.08558835 100.81943713 221.47224412 100.83579196 210.85887623 100.85596192 C198.75940221 100.87844864 186.65992601 100.88934621 174.56043625 100.89935279 C149.70693435 100.9201626 124.85346955 100.95525808 100 101 Z " fill="#D8D8D8" transform="translate(772,774)"/>
<path d="M0 0 C5.63479882 0.01270916 11.26958759 0.02047086 16.90439838 0.02535492 C108.87159838 0.10724175 200.8383822 0.66677957 292.80384296 1.20260102 C292.85592595 45.91646292 292.74127727 90.62669187 292.45129752 135.33959356 C292.43144891 138.41047864 292.41188143 141.48136549 292.39232037 144.55225242 C292.30527155 158.21666225 292.21708213 171.88106415 292.12516445 185.54544216 C292.10317297 188.81665977 292.08118563 192.08787741 292.05921406 195.35909516 C292.05375745 196.17134049 292.04830084 196.98358582 292.04267888 197.82044465 C291.95375663 211.08844064 291.872617 224.35647285 291.79453774 237.62453663 C291.71319616 251.42545871 291.62494727 265.22632345 291.53008586 279.02715933 C291.47746865 286.70596557 291.42764631 294.38476472 291.38569492 302.06363732 C291.35015678 308.56537787 291.30822785 315.06704042 291.25850613 321.56868856 C291.23348722 324.86382228 291.21212409 328.15885837 291.19700474 331.45406014 C291.08402147 355.3661226 289.95329756 379.20707461 286.68152851 402.91158539 C286.35812248 405.26235395 286.0519421 407.61497122 285.74720234 409.96822602 C284.57037748 418.85582655 282.95955723 427.49247374 280.80384296 436.20260102 C280.34563643 438.2274995 279.89250941 440.2535541 279.44446796 442.28072602 C263.4092655 513.78968266 234.06252312 582.10545585 184.80384296 637.20260102 C183.60114765 638.55418305 183.60114765 638.55418305 182.37415546 639.93306977 C180.90428035 641.57332832 179.42926801 643.20900245 177.94837421 644.83931977 C176.47863371 646.45897916 175.01812391 648.08704916 173.56556171 649.72213227 C166.738656 657.39797962 159.68439444 664.71896557 151.87806171 671.40572602 C149.60226578 673.37722531 147.39461629 675.41394497 145.17884296 677.45260102 C121.19001591 699.03890518 93.77383289 716.32934713 65.80384296 732.20260102 C65.05699238 732.62783051 64.31014179 733.05306 63.54065937 733.49117523 C39.27784723 747.17803943 13.04005555 757.66617279 -13.38365704 766.32760102 C-14.94825323 766.84409491 -16.5127069 767.36102076 -18.07701641 767.87838227 C-20.36655538 768.63550662 -22.65647455 769.39131001 -24.94804913 770.1422525 C-28.06842819 771.16488775 -31.18137369 772.19743106 -34.28111798 773.28145844 C-42.85601425 776.27275375 -51.61202005 778.44088463 -60.42223126 780.61202484 C-63.0604856 781.26247004 -65.69678328 781.92040836 -68.33287579 782.57955414 C-81.07773058 785.75308509 -93.81786527 788.83742004 -106.82115704 790.76510102 C-108.33427097 790.99495773 -109.84729045 791.22543704 -111.36021954 791.45650727 C-112.13228741 791.57397309 -112.90435528 791.69143891 -113.69981915 791.8124643 C-116.46635123 792.24482794 -119.22763402 792.70399342 -121.98912579 793.16744477 C-145.89502593 797.17517628 -169.65243526 800.21383634 -193.83043438 801.93722016 C-195.72584424 802.08666964 -197.62071499 802.24663928 -199.51186109 802.44280285 C-206.40049277 803.1407986 -213.20031995 803.34421985 -220.12091595 803.32958466 C-221.84664067 803.33192464 -221.84664067 803.33192464 -223.60722852 803.3343119 C-227.43677072 803.33827893 -231.26627279 803.33514873 -235.09581524 803.33199555 C-237.85348107 803.3328019 -240.61114523 803.33509705 -243.36881024 803.33730561 C-250.07304402 803.34174184 -256.77726657 803.34079526 -263.48150078 803.33789296 C-268.94906706 803.33562541 -274.41663021 803.33533227 -279.88419682 803.33641678 C-280.66548827 803.33657001 -281.44677973 803.33672325 -282.25174668 803.33688112 C-283.83977402 803.3372009 -285.42780136 803.33752512 -287.01582869 803.33785371 C-301.90181556 803.34070355 -316.78779627 803.33743191 -331.67378213 803.33205335 C-344.36296556 803.32760946 -357.0521398 803.32834212 -369.74132305 803.33297211 C-384.53579782 803.33836789 -399.33026714 803.34040413 -414.12474275 803.33735985 C-415.71485903 803.33704138 -417.30497531 803.336727 -418.89509159 803.33641678 C-419.6770352 803.33626251 -420.45897881 803.33610823 -421.26461769 803.33594928 C-426.69261277 803.33509721 -432.12060429 803.33653675 -437.54859883 803.33889633 C-469.10774975 803.35146915 -500.65321691 803.36076398 -532.19615704 802.20260102 C-532.30677226 716.02684674 -532.29025961 629.85288618 -531.8065995 543.67817616 C-531.77464784 537.98463708 -531.743718 532.29109395 -531.71381927 526.59754372 C-531.59060732 503.16301061 -531.44013055 479.72894062 -531.21599346 456.29513603 C-531.19664839 454.25443323 -531.17801302 452.21372505 -531.15953594 450.17301422 C-531.09389203 443.1029809 -531.0129266 436.03352582 -530.90210301 428.96404892 C-530.87248063 426.98049825 -530.84721067 424.99687574 -530.82717091 423.01320511 C-530.65452886 406.7981527 -528.34171561 391.3600947 -525.15318829 375.48775727 C-523.05573647 364.98109762 -521.61226794 354.40951448 -520.18474346 343.79421479 C-513.71358928 295.89135924 -504.6261983 245.9384824 -483.19615704 202.20260102 C-482.86905743 201.5263266 -482.54195782 200.85005219 -482.2049461 200.15328461 C-480.2483013 196.11877848 -478.24137659 192.11318437 -476.18736798 188.1274057 C-475.53031484 186.85149267 -474.87726674 185.57350865 -474.2283836 184.29342133 C-461.13490328 158.49195401 -442.94477025 135.85152112 -422.63365704 115.39010102 C-421.77135479 114.51845307 -420.90905255 113.64680512 -420.02061993 112.74874359 C-414.05572107 106.81321456 -407.80659234 101.40621142 -401.19615704 96.20260102 C-400.50546124 95.65789154 -399.81476544 95.11318207 -399.10313946 94.55196625 C-384.93176598 83.51794934 -369.97623738 73.8557256 -354.19664532 65.29097992 C-352.19896798 64.20413033 -350.21131022 63.10034152 -348.22350079 61.99556977 C-309.46487329 40.69725751 -265.95058519 27.44947432 -222.71324688 18.90133148 C-218.97032894 18.15773637 -215.23362888 17.38700965 -211.49693829 16.61275727 C-197.45093449 13.72124268 -183.42742702 10.99680124 -169.19615704 9.20260102 C-168.29719708 9.08851898 -167.39823712 8.97443695 -166.47203594 8.85689789 C-151.92508187 7.0523952 -137.32870554 5.70435182 -122.72978741 4.4003244 C-120.85481886 4.23257856 -118.98000797 4.06305634 -117.10539776 3.89135224 C-110.14052393 3.25707482 -103.17102947 2.71430749 -96.19615704 2.20260102 C-94.42284008 2.06599564 -94.42284008 2.06599564 -92.61369854 1.92663056 C-61.78447552 -0.36994151 -30.89321912 -0.07069074 0 0 Z M-59.93443829 100.63228852 C-61.25781421 100.65981013 -61.25781421 100.65981013 -62.607925 100.68788773 C-92.84863969 101.33566989 -122.80206826 103.99367296 -152.73500592 108.2870279 C-157.32794674 108.94549834 -161.92380273 109.55761248 -166.52818829 110.13228852 C-193.85933458 113.62269274 -220.9673001 119.76904204 -247.19615704 128.20260102 C-248.21226055 128.52277191 -249.22836407 128.84294281 -250.2752586 129.17281586 C-308.03289667 147.52927564 -359.36608137 180.59496942 -388.12145001 235.09176117 C-391.46299242 241.65490876 -394.37347749 248.40349093 -397.19615704 255.20260102 C-397.46524884 255.84068695 -397.73434063 256.47877289 -398.01158673 257.13619477 C-406.87235428 278.3840683 -411.74815841 301.55054873 -415.82115704 324.13765961 C-416.18788221 326.1570356 -416.5660408 328.17398948 -416.94615704 330.19088227 C-418.65479153 339.39772083 -419.97006839 348.62656931 -421.10631329 357.92159516 C-421.80876735 363.58862336 -422.6951135 369.18712585 -423.74767071 374.79976898 C-424.44047988 378.51159687 -424.98540426 382.24042144 -425.53098065 385.97617584 C-426.01019101 389.13247455 -426.57175975 392.26745924 -427.15588909 395.4059549 C-430.05293273 411.4224208 -430.8341986 426.98774434 -430.91100079 443.23775727 C-430.93745813 445.90039125 -430.96539157 448.56297105 -430.99521405 451.22556549 C-431.05459551 456.77297051 -431.10113481 462.32034483 -431.13774639 467.86794525 C-431.19113461 475.94311505 -431.27178447 484.01783327 -431.35680157 492.09273773 C-431.50163351 506.23405457 -431.61210472 520.37546445 -431.71356958 534.51714057 C-431.74760772 539.22424919 -431.78494474 543.93132094 -431.82384259 548.63839203 C-432.24937207 600.15970945 -432.24497299 651.67978806 -432.19615704 703.20260102 C-404.69903915 703.249562 -377.20192738 703.2847069 -349.7047773 703.30622536 C-336.93406788 703.31648744 -324.16338355 703.33044939 -311.39269024 703.35347992 C-300.24678855 703.37357054 -289.10090504 703.38635415 -277.95498574 703.39077801 C-272.06693829 703.39335918 -266.17894281 703.3993169 -260.29091221 703.41406113 C-220.34105713 703.51011193 -181.20210087 702.05888412 -141.75084454 695.15572602 C-138.40708998 694.57133641 -135.06660787 694.02526612 -131.70396954 693.56197602 C-109.17965348 690.42764807 -86.35725133 685.12903398 -64.74645001 678.03609711 C-61.84182038 677.08679541 -58.92722729 676.17139716 -56.01256329 675.25338227 C-9.2428983 660.30764756 34.86420513 638.64493084 72.80384296 607.20260102 C73.81188984 606.38017914 74.81993671 605.55775727 75.85853046 604.71041352 C90.07337099 592.94280127 103.5816248 579.87613966 114.80384296 565.20260102 C115.65130456 564.15345904 116.50175029 563.10672293 117.35462421 562.06197602 C138.53440251 535.95376066 155.13677057 505.69337163 166.80384296 474.20260102 C167.1642165 473.25054779 167.1642165 473.25054779 167.53187031 472.27926117 C178.55201481 443.06622398 185.39723476 411.46153358 188.45539325 380.40499359 C188.69360826 378.21570212 188.972411 376.03054813 189.28591388 373.85076386 C191.28963376 358.87216873 191.15625586 343.83972578 191.20854729 328.75775772 C191.22454596 324.72338197 191.25137629 320.68907528 191.27672809 316.65474945 C191.32378562 308.88680397 191.36057893 301.11884392 191.39351416 293.35082704 C191.4202463 287.10589901 191.45138885 280.8610064 191.48545307 274.6161142 C191.80020113 216.8116898 191.94616005 159.00786339 191.80384296 101.20260102 C133.15121918 100.62776783 74.49915688 100.09763905 15.84327549 100.07921845 C12.54728101 100.07762801 9.25129397 100.07409463 5.9553017 100.07003266 C-16.0126615 100.04601146 -37.9711324 100.15288794 -59.93443829 100.63228852 Z " fill="#464652" transform="translate(1296.1961570382118,1657.7973989844322)"/>
<path d="M0 0 C0.38654808 62.68069777 0.69818705 125.36160273 0.9544946 188.04296631 C0.98949676 196.56126476 1.02652749 205.07955293 1.06433105 213.59783936 C1.17969564 239.7717986 1.27682172 265.94566759 1.32823563 292.11983871 C1.35079268 303.42537777 1.38133834 314.73075245 1.43432617 326.03619385 C1.47948392 335.68713885 1.50682419 345.33793656 1.51191533 354.98898917 C1.51499739 359.90496264 1.52570644 364.82056391 1.55907822 369.73643303 C1.69706466 390.95909533 0.82227475 410.93735684 -3.39362144 431.78803539 C-4.41718864 437.20983265 -5.1131705 442.67255854 -5.80859375 448.14453125 C-5.95106002 449.24670581 -6.09352629 450.34888037 -6.24030972 451.48445415 C-6.50334215 453.52313461 -6.76487196 455.56200932 -7.02514648 457.6010437 C-14.28910757 514.1736027 -25.01864424 571.13535646 -52 622 C-52.58652344 623.17433594 -53.17304688 624.34867188 -53.77734375 625.55859375 C-62.18165566 642.22526807 -73.08617142 657.66664255 -85 672 C-85.46583496 672.56734863 -85.93166992 673.13469727 -86.41162109 673.71923828 C-96.34677067 685.78454844 -107.01574966 697.16890293 -119.30859375 706.8671875 C-122.16710507 709.13242289 -124.92054455 711.49906787 -127.6875 713.875 C-134.77451374 719.77780836 -142.29969159 724.93405247 -150 730 C-151.1444458 730.75531006 -151.1444458 730.75531006 -152.31201172 731.52587891 C-162.17108567 737.99507155 -172.09566098 743.89889559 -182.76074219 748.93115234 C-185.2530366 750.12078001 -187.72378239 751.34986507 -190.1953125 752.58203125 C-204.47538583 759.64281045 -219.03804122 765.54876096 -234 771 C-235.58337158 771.58394531 -235.58337158 771.58394531 -237.19873047 772.1796875 C-269.24208058 783.93762911 -302.48337445 791.73952547 -336.171875 797.04296875 C-340.52390929 797.72987297 -344.8318569 798.56342093 -349.15234375 799.42578125 C-360.28421606 801.57559777 -371.55174081 802.74582936 -382.8125 804 C-383.97073273 804.13006439 -385.12896545 804.26012878 -386.32229614 804.39413452 C-402.00730107 806.14464572 -417.6942916 807.69471471 -433.4375 808.8125 C-434.21122955 808.86962158 -434.98495911 808.92674316 -435.78213501 808.9855957 C-447.43718473 809.82886318 -459.10789146 810.19110828 -470.78710938 810.49902344 C-471.60224625 810.52059041 -472.41738312 810.54215739 -473.2572211 810.5643779 C-493.98234477 811.10338217 -514.71000877 811.33669137 -535.44082904 811.52869725 C-538.72793001 811.55922314 -542.01502014 811.59077502 -545.30211067 811.6224041 C-596.70511883 812.11071038 -648.10722653 812.12071705 -699.51207888 812.07202756 C-711.9468819 812.06046558 -724.38168579 812.0552585 -736.81649292 812.05032361 C-762.21100126 812.04011643 -787.60549999 812.02275829 -813 812 C-813.66530427 725.16934295 -814.13245319 638.33759736 -814.22839546 551.50431561 C-814.22964361 550.37637169 -814.23089176 549.24842776 -814.23217773 548.08630371 C-814.23341078 546.96166112 -814.23464382 545.83701852 -814.23591423 544.67829585 C-814.24530126 536.78961867 -814.26263477 528.90098369 -814.28344727 521.0123291 C-814.30889036 511.30619973 -814.32314421 501.60012794 -814.32373834 491.89396405 C-814.32427977 486.92013458 -814.32929438 481.94643185 -814.3476181 476.97263336 C-814.42645302 454.44765408 -813.78977711 432.37241666 -811 410 C-810.89038846 409.11778778 -810.78077692 408.23557556 -810.66784382 407.32662964 C-810.10881382 402.91101287 -809.46951257 398.5172901 -808.75 394.125 C-808.54093018 392.8265918 -808.33186035 391.52818359 -808.11645508 390.19042969 C-801.05880579 347.18715158 -789.18559526 305.68351569 -771 266 C-770.59813477 265.1126416 -770.19626953 264.2252832 -769.78222656 263.31103516 C-760.82023273 243.59248225 -750.13633581 224.93311116 -738 207 C-737.2889209 205.9488501 -737.2889209 205.9488501 -736.56347656 204.87646484 C-729.24535278 194.13392842 -721.37685661 183.93519602 -713 174 C-712.59395538 173.51244232 -712.18791077 173.02488464 -711.76956177 172.52255249 C-704.47408701 163.77110859 -696.82048035 155.5025035 -688.73608398 147.4753418 C-686.92778392 145.67784195 -685.13054023 143.86977684 -683.33398438 142.06054688 C-676.52696876 135.24580163 -669.55585633 128.98353027 -662 123 C-660.89791896 122.06551862 -659.80160115 121.12413359 -658.71484375 120.171875 C-640.44104034 104.23691281 -619.87274946 91.23457234 -599 79 C-598.42185547 78.6587207 -597.84371094 78.31744141 -597.24804688 77.96582031 C-588.03689996 72.53986286 -578.63780662 67.62125102 -569 63 C-568.15775879 62.59410645 -567.31551758 62.18821289 -566.44775391 61.77001953 C-536.8806468 47.61254907 -506.08186036 36.36630543 -474.48193359 27.68212891 C-472.90305945 27.24819478 -471.32514058 26.81075835 -469.74853516 26.36865234 C-446.21149199 19.77488524 -422.1264615 14.84938015 -398 11 C-397.19336914 10.8664209 -396.38673828 10.7328418 -395.55566406 10.59521484 C-383.32935006 8.57080883 -371.06734409 7.20422501 -358.73388672 6.00170898 C-356.94942139 5.8268396 -356.94942139 5.8268396 -355.12890625 5.6484375 C-354.06744385 5.54708496 -353.00598145 5.44573242 -351.91235352 5.34130859 C-349.09682169 5.05622344 -349.09682169 5.05622344 -346.74583435 4.52427673 C-309.10740342 -2.66222875 -268.09975204 0.44608357 -229.93703723 0.33828658 C-223.32872039 0.31930496 -216.72045794 0.29353531 -210.11218262 0.26345825 C-208.69292917 0.25700439 -208.69292917 0.25700439 -207.24500394 0.25042015 C-205.32738841 0.24168138 -203.40977292 0.23293588 -201.49215746 0.22418368 C-134.32862314 -0.07863733 -67.16403836 -0.11963157 0 0 Z M-247.76098633 100.20751953 C-251.73072707 100.23904209 -255.70031857 100.25910632 -259.67016602 100.27099609 C-287.24372851 100.35878611 -314.37300056 101.75417639 -341.78529358 104.75932312 C-345.29615907 105.14085638 -348.80909191 105.50206722 -352.32202148 105.86401367 C-364.95060037 107.1685194 -377.49888429 108.78034535 -390 111 C-390.85287598 111.15082031 -391.70575195 111.30164063 -392.58447266 111.45703125 C-402.78354043 113.28206902 -412.86801028 115.33425758 -422.89453125 117.953125 C-425.79766947 118.70770072 -428.70881725 119.39502755 -431.63671875 120.046875 C-502.99203878 136.037158 -567.15647495 169.62068078 -620 220 C-620.79535156 220.7528125 -621.59070312 221.505625 -622.41015625 222.28125 C-627.75603204 227.46770604 -632.35661365 233.18662653 -637 239 C-637.96096279 240.1716213 -638.92326183 241.34214757 -639.88671875 242.51171875 C-646.83789658 250.99688775 -653.14065805 259.72888931 -659 269 C-659.54188965 269.84836426 -659.54188965 269.84836426 -660.09472656 270.71386719 C-673.35273549 291.59977165 -683.55079267 313.78758219 -692 337 C-692.34256836 337.93263672 -692.68513672 338.86527344 -693.03808594 339.82617188 C-710.74402745 388.57641002 -714.52197781 439.25077093 -714.33711338 490.61715198 C-714.32166122 495.78130573 -714.32324121 500.94546141 -714.32244873 506.1096344 C-714.31878526 514.80562956 -714.30399737 523.50154448 -714.28125 532.19750977 C-714.25270136 543.12866433 -714.24209734 554.05975429 -714.23744965 564.990942 C-714.21645724 614.00141474 -713.94889952 662.99805977 -713 712 C-672.3110001 712.05301259 -631.62180172 711.97469515 -590.93311119 711.81609344 C-580.68107154 711.77654158 -570.42910934 711.74404601 -560.17700195 711.72900391 C-499.64789849 711.63516984 -439.09041189 711.21880718 -379 703 C-377.82099121 702.84031738 -376.64198242 702.68063477 -375.42724609 702.51611328 C-360.49147541 700.45072873 -345.69846448 697.74665489 -330.94921875 694.62353516 C-329.04684178 694.22132731 -327.14326266 693.8247445 -325.23828125 693.43505859 C-271.03578596 682.32750345 -215.0868835 661.2620505 -175 622 C-174.13246094 621.18273438 -173.26492188 620.36546875 -172.37109375 619.5234375 C-160.89805489 608.49926558 -151.9640818 595.70941205 -144 582 C-143.41605469 580.99694824 -143.41605469 580.99694824 -142.8203125 579.97363281 C-132.05265055 561.21152386 -125.48840331 540.83929203 -120 520 C-119.68562988 518.8248584 -119.37125977 517.6497168 -119.04736328 516.43896484 C-112.38600363 491.04356733 -108.81655885 465.19967727 -105.53018856 439.17895126 C-104.76743465 433.24826833 -103.91749676 427.38032636 -102.7322998 421.51847839 C-97.18597172 392.54524842 -98.34704956 362.94652316 -98.48230927 333.57795852 C-98.51868244 325.4609249 -98.52561681 317.34393474 -98.53128967 309.22683121 C-98.54214773 294.75938279 -98.57518722 280.29207785 -98.62280273 265.82470703 C-98.66892107 251.79737042 -98.70420289 237.77007322 -98.7253418 223.74267578 C-98.72665541 222.87343168 -98.72796903 222.00418758 -98.72932246 221.10860275 C-98.73584913 216.74648761 -98.74216732 212.3843722 -98.74838197 208.02225661 C-98.79994966 172.0147366 -98.8877784 136.00737962 -99 100 C-173.38108759 99.88900841 -173.38108759 99.88900841 -247.76098633 100.20751953 Z " fill="#D8D8D8" transform="translate(2466,774)"/>
<path d="M0 0 C1.91085021 -0.00251827 3.82170042 -0.00504104 5.73255062 -0.00756836 C6.67182752 -0.0088014 7.61110442 -0.01003445 8.57884425 -0.01130486 C15.0828453 -0.02059446 21.5867929 -0.03790882 28.09076595 -0.05883789 C119.43423906 -0.34424974 211.47182824 3.22254093 451.02481747 108.52929688 C453.27293823 110.6311984 455.5446339 112.63209382 457.90762997 114.59960938 C467.97688212 123.35455915 476.55921594 133.84182056 484.57364559 144.46240234 C485.89509436 146.20804971 487.23633543 147.93705251 488.57950497 149.66601562 C513.90572013 182.72136206 529.81914538 222.27658061 540.34512997 262.28710938 C540.53672695 263.01129059 540.72832394 263.7354718 540.92572689 264.4815979 C545.90844404 283.39910681 549.97162937 302.46280696 552.45865536 321.87915039 C552.96656456 325.6637506 553.64131593 329.35966368 554.40762997 333.09960938 C555.66387646 339.45032625 556.50343348 345.79182964 557.21060848 352.22460938 C557.73392532 356.9263433 558.44489927 361.53591986 559.34512997 366.17773438 C560.22558608 370.94687164 560.94666686 375.74079828 561.6788702 380.53466797 C561.79432186 381.28055176 561.90977352 382.02643555 562.02872372 382.79492188 C562.14972942 383.59284653 562.27073513 384.39077118 562.39540768 385.21287537 C562.75044339 387.30039312 563.16526726 389.37828107 563.6267767 391.44487 C566.46879335 404.9942234 566.4503169 418.51803306 566.54360223 432.31399369 C566.56609401 435.29843063 566.59921842 438.28271764 566.63209933 441.26705545 C566.74567241 451.6230112 566.82097924 461.97912744 566.88864326 472.33547115 C566.90801824 475.28369194 566.92809622 478.23190728 566.94831753 481.18012238 C567.15739531 511.85467601 567.30019623 542.52943239 567.42504156 573.20442951 C567.45930333 581.56964819 567.49643034 589.93485042 567.53531551 598.30004883 C567.85101623 666.27525291 567.96969146 734.24869755 567.90762997 802.22460938 C528.8075322 802.97368355 489.72197974 803.39711523 450.61380696 803.42479801 C446.5589115 803.42779876 442.50401844 803.43188931 438.44912434 803.43630219 C427.07612195 803.44839254 415.7031211 803.45872957 404.33011246 803.46217728 C403.25981312 803.46250663 403.25981312 803.46250663 402.16789157 803.46284263 C401.45344323 803.46306091 400.7389949 803.46327918 400.00289661 803.46350408 C398.55699718 803.46394743 397.11109775 803.46439399 395.66519833 803.46484375 C394.58955712 803.46517589 394.58955712 803.46517589 393.49218579 803.46551475 C381.82322944 803.46947989 370.15433478 803.48703247 358.48540232 803.51020327 C346.3175525 803.53415923 334.14973355 803.54638895 321.98185986 803.54754519 C315.22412473 803.54844533 308.4664895 803.55411432 301.70877171 803.57236481 C258.33146118 803.6827921 215.91326964 801.61265232 172.96127987 795.51306152 C169.9623559 795.0918378 166.96015181 794.69550767 163.95841122 794.29492188 C145.37741452 791.72388537 127.14646876 787.54195394 108.90762997 783.22460938 C108.22746822 783.06476562 107.54730648 782.90492188 106.84653378 782.74023438 C39.96833619 767.00370576 -25.01891474 739.65831217 -80.09237003 698.22460938 C-80.98206486 697.56235352 -80.98206486 697.56235352 -81.88973331 696.88671875 C-90.6225366 690.3802181 -98.92355989 683.42094212 -107.09237003 676.22460938 C-108.02049503 675.40992187 -108.94862003 674.59523438 -109.90487003 673.75585938 C-116.73557161 667.62375228 -123.26242751 661.18642004 -129.77987003 654.72460938 C-130.65909122 653.85843994 -131.53831242 652.99227051 -132.44417667 652.09985352 C-138.43008973 646.1218174 -143.81590049 639.83100738 -149.09237003 633.22460938 C-149.95597684 632.19724302 -150.82437331 631.17383948 -151.70174503 630.15820312 C-183.00310897 593.65898496 -205.42661087 550.05339193 -222.09237003 505.22460938 C-222.65697941 503.71253906 -222.65697941 503.71253906 -223.23299503 502.16992188 C-232.07804207 478.26265706 -237.82985052 453.91298599 -242.40291691 428.89111328 C-243.31087924 424.0625799 -244.31642141 419.25574378 -245.33748722 414.44995117 C-251.25142324 383.50041968 -251.57026552 351.7332982 -251.70222187 320.34994125 C-251.72851075 314.81761849 -251.77092854 309.2854117 -251.81087589 303.75317383 C-251.88210599 293.54382945 -251.94171592 283.33445019 -251.99520206 273.125 C-252.06322585 260.15749363 -252.14116433 247.19007186 -252.22469425 234.22265625 C-252.24862645 230.50296533 -252.27255492 226.78327439 -252.2964716 223.06358337 C-252.30249858 222.12645978 -252.30852556 221.18933618 -252.31473517 220.2238149 C-252.42687155 202.74735798 -252.53270293 185.27086161 -252.63755798 167.79435968 C-252.65468279 164.94328302 -252.67189603 162.0922069 -252.68911839 159.24113083 C-253.00645295 106.56842215 -253.15864286 53.89828373 -253.09237003 1.22460938 C-168.72956248 0.63753192 -84.36496009 0.11107877 0 0 Z M8.33656979 100.24963379 C-16.41982712 100.3599496 -41.175927 100.50559231 -65.932019 100.66998959 C-75.37488946 100.73260072 -84.81777928 100.79204651 -94.2606709 100.851367 C-113.5379255 100.97253102 -132.81515556 101.09722707 -152.09237003 101.22460938 C-152.21958522 161.59961032 -152.12004055 221.97243511 -151.75935429 282.34642291 C-151.7259003 288.01614996 -151.6972887 293.68588851 -151.67076969 299.35565186 C-151.63792951 306.34686783 -151.59805209 313.33800397 -151.54968029 320.32913035 C-151.52495661 323.92067982 -151.50293787 327.51218322 -151.4890089 331.10379219 C-151.42243072 347.57875097 -150.86183657 363.83970818 -149.09237003 380.22460938 C-148.95488346 381.53044983 -148.81739689 382.83629028 -148.67574406 384.18170166 C-147.05057028 399.01325043 -144.0900739 413.47572282 -140.65487003 427.97460938 C-140.46786533 428.76763458 -140.28086063 429.56065979 -140.08818913 430.37771606 C-134.20711925 455.13167672 -125.97991049 479.21557418 -115.09237003 502.22460938 C-114.72418156 503.01013184 -114.35599308 503.7956543 -113.97664738 504.60498047 C-104.96300035 523.69651808 -94.00916322 541.52716416 -81.09237003 558.22460938 C-80.38467472 559.145 -79.67697941 560.06539062 -78.94783878 561.01367188 C-74.91410039 566.15330699 -70.64115735 571.03690453 -66.23690128 575.86132812 C-64.3578589 577.93203968 -62.53222598 580.03539274 -60.71737003 582.16210938 C-53.72679007 590.15134362 -46.19105085 597.38315171 -37.88533878 603.99023438 C-35.02394665 606.27934809 -32.24996847 608.65310963 -29.46737003 611.03710938 C0.27966961 635.78175852 35.08491794 653.17768029 70.90762997 667.22460938 C71.75631649 667.56540527 72.60500301 667.90620117 73.47940731 668.25732422 C105.04343809 680.92477895 138.5645741 688.11485372 171.90762997 694.22460938 C172.72054501 694.37389893 173.53346004 694.52318848 174.37100887 694.67700195 C185.71438685 696.70767539 197.14862439 698.00574151 208.59512997 699.28710938 C209.3214764 699.36919647 210.04782284 699.45128357 210.79617977 699.53585815 C231.72222736 701.8863074 252.48477708 703.53161946 273.55216122 703.45166016 C275.69360505 703.45109387 277.83504927 703.45141683 279.97649288 703.45254517 C285.70426318 703.4531112 291.43194705 703.4414806 297.15969753 703.42739725 C303.17739563 703.41476267 309.19509643 703.41370949 315.21280575 703.41134644 C326.56992598 703.40516862 337.92700699 703.38880869 349.28411007 703.36864746 C362.23000128 703.34617226 375.17589451 703.33526601 388.12180042 703.32525659 C414.71709855 703.30443853 441.31236204 703.26933571 467.90762997 703.22460938 C468.02102161 642.73087134 467.84647591 582.24484761 467.24935043 521.75379562 C467.14206376 510.87769202 467.04735383 500.00156795 466.96249503 489.12526655 C466.89439326 480.49463242 466.81532701 471.86414164 466.72796136 463.2336812 C466.67685844 458.16250197 466.63010755 453.09138418 466.59521198 448.02006531 C466.56263014 443.32373584 466.51633133 438.62773473 466.4597559 433.9316349 C466.44152363 432.22859026 466.42804438 430.52548612 466.41999722 428.8223629 C466.36638859 418.21078363 465.26332893 408.57816999 462.90762997 398.22460938 C462.48477 395.59890618 462.19057817 392.99635403 461.90762997 390.34960938 C461.27221124 384.76344992 460.42667362 379.25340959 459.40762997 373.72460938 C458.42585478 368.38073149 457.601144 363.06202591 456.97012997 357.66210938 C454.99084629 341.10810047 451.99422151 324.69958847 448.38565731 308.42773438 C447.92661834 306.31212271 447.5003185 304.19262519 447.08341122 302.06835938 C438.54911048 259.60513033 421.07353767 220.51276066 390.90762997 189.22460938 C390.14450497 188.39832031 389.38137997 187.57203125 388.59512997 186.72070312 C358.54694883 155.09905305 314.8149585 137.34573474 273.90762997 125.22460938 C272.86236141 124.91040039 271.81709286 124.59619141 270.7401495 124.27246094 C251.75358502 118.62919023 232.42005567 114.99932016 212.93527889 111.58270264 C211.14084543 111.26579643 209.34807498 110.939505 207.55557919 110.61181641 C191.67643468 107.72160809 175.64657037 106.18089567 159.59512997 104.59960938 C158.03059582 104.44271637 158.03059582 104.44271637 156.43445492 104.28265381 C124.53103202 101.11471583 92.67975689 99.89975074 60.63333941 100.05722618 C56.24050521 100.07655369 51.84764445 100.08367455 47.45477962 100.09289551 C37.20988042 100.11720649 26.9651202 100.16187685 16.72031498 100.21122742 C13.92573526 100.22452324 11.13115344 100.23719336 8.33656979 100.24963379 Z " fill="#D8D8D8" transform="translate(1906.0923700332642,1657.775390625)"/>
</svg>
